<?xml version="1.0" standalone="no"?>
<!DOCTYPE svg PUBLIC "-//W3C//DTD SVG 20010904//EN"
 "http://www.w3.org/TR/2001/REC-SVG-20010904/DTD/svg10.dtd">
<svg version="1.0" xmlns="http://www.w3.org/2000/svg"
 width="512.000000pt" height="512.000000pt" viewBox="0 0 512.000000 512.000000"
 preserveAspectRatio="xMidYMid meet">
<metadata>
Created by potrace 1.14, written by Peter Selinger 2001-2017
</metadata>
<g transform="translate(0.000000,512.000000) scale(0.100000,-0.100000)"
fill="#000000" stroke="none">
<path d="M3468 3930 c-74 -6 -111 -26 -141 -79 -18 -30 -19 -85 -19 -1291 l0
-1261 23 -34 c13 -19 39 -43 59 -53 34 -19 59 -20 635 -20 427 0 610 3 634 11
19 7 48 29 65 50 l31 39 1 1256 c1 1037 -1 1263 -13 1291 -17 42 -59 79 -98
86 -39 8 -1089 12 -1177 5z m1089 -454 c10 -4 13 -32 13 -110 0 -85 -3 -105
-16 -110 -9 -3 -246 -6 -529 -6 -422 0 -515 2 -524 14 -12 14 -14 185 -2 204
3 6 31 12 61 14 88 5 982 -1 997 -6z m4 -403 c15 -15 13 -204 -3 -214 -20 -13
-1040 -9 -1056 4 -16 13 -15 192 2 206 6 5 20 10 30 12 44 8 1019 0 1027 -8z
m-447 -702 c44 -24 79 -96 71 -146 -16 -107 -141 -170 -225 -112 -46 31 -69
65 -76 114 -17 123 117 207 230 144z m-34 -406 c73 -37 37 -155 -47 -155 -74
0 -110 88 -58 144 27 30 62 33 105 11z"/>
<path d="M503 3869 c-42 -8 -98 -52 -120 -92 -16 -30 -18 -99 -18 -949 l0
-917 23 -23 23 -23 1246 0 1246 -1 29 24 28 24 0 915 c0 982 2 939 -49 997
-47 53 19 50 -1226 51 -632 1 -1165 -2 -1182 -6z m2275 -174 c9 -3 12 -167 12
-774 0 -423 -3 -776 -6 -785 -6 -14 -113 -16 -1119 -16 -1052 0 -1114 1 -1118
18 -3 9 -4 364 -4 787 l2 770 100 5 c125 6 2115 2 2133 -5z m-1074 -1664 c24
-26 17 -62 -15 -80 -24 -13 -29 -13 -53 2 -16 11 -26 27 -26 42 0 50 60 73 94
36z"/>
<path d="M1500 1725 c-8 -10 -111 -222 -162 -335 -11 -25 -31 -67 -44 -94 -55
-115 -56 -114 366 -114 190 1 355 4 367 9 37 14 36 41 -5 130 -174 377 -190
409 -209 410 -104 7 -306 3 -313 -6z"/>
</g>
</svg>
